
        <svg xmlns="http://www.w3.org/2000/svg" xmlns:xlink="http://www.w3.org/1999/xlink" version="1.1" width="3162.175444344336" height="1037.833565162879" viewBox="0 0 3162.175444344336 1037.833565162879">
			
			<g transform="scale(8.108772217216806) translate(10, 10)">
				<defs id="SvgjsDefs4000"/><g id="SvgjsG4001" featureKey="PG4fjM-0" transform="matrix(0.6258222893881106,0,0,0.6258222893881106,-4.594787253462153,22.084101855442384)" fill="#fff"><path xmlns="http://www.w3.org/2000/svg" d="M61.834,77.235c0,8.337,6.782,15.12,15.12,15.12c8.337,0,15.125-6.782,15.125-15.12c0-8.337-6.789-15.125-15.125-15.125  C68.617,62.109,61.834,68.898,61.834,77.235z M84.934,77.235c0,4.397-3.58,7.977-7.98,7.977c-4.396,0-7.976-3.58-7.976-7.977  c0-4.403,3.58-7.983,7.976-7.983C81.354,69.252,84.934,72.832,84.934,77.235z"/><polygon xmlns="http://www.w3.org/2000/svg" points="7.349,48.645 12.904,54.2 20.686,46.418 28.464,54.2 34.019,48.645 26.237,40.863 34.025,33.078 28.471,27.523   20.686,35.312 12.897,27.523 7.342,33.078 15.131,40.863 "/><path xmlns="http://www.w3.org/2000/svg" d="M10.111,80.884l0.88,7.09c28.257-3.497,50.522-25.697,54.764-53.48l11.281,0.069L62.734,9.453L48.138,34.388l10.408,0.062  C54.381,58.619,34.838,77.821,10.111,80.884z"/></g><g id="SvgjsG4002" featureKey="jxYttZ-0" transform="matrix(7.541129733745593,0,0,7.541129733745593,66.96709657259261,-44.04018800808672)" fill="#fff"><path d="M5.82 20 l-2.14 -5.58 l-0.68 1.28 l0 4.3 l-2.2 0 l0 -14 l2.2 0 l0 6.06 l0.04 0 l2.84 -6.06 l2.2 0 l-3.06 6.24 l3.06 7.76 l-2.26 0 z M10.959999999999999 9.22 l0 7.56 c0 1 0.44 1.38 1.14 1.38 s1.14 -0.38 1.14 -1.38 l0 -7.56 c0 -1 -0.44 -1.38 -1.14 -1.38 s-1.14 0.38 -1.14 1.38 z M8.759999999999998 16.64 l0 -7.28 c0 -2.24 1.18 -3.52 3.34 -3.52 s3.34 1.28 3.34 3.52 l0 7.28 c0 2.24 -1.18 3.52 -3.34 3.52 s-3.34 -1.28 -3.34 -3.52 z M16.86 20 l0 -14 l3.48 0 c2.2 0 3.28 1.22 3.28 3.46 l0 7.08 c0 2.24 -1.08 3.46 -3.28 3.46 l-3.48 0 z M20.299999999999997 8 l-1.24 0 l0 10 l1.24 0 c0.7 0 1.12 -0.36 1.12 -1.36 l0 -7.28 c0 -1 -0.42 -1.36 -1.12 -1.36 z M31.86 20 l-2.24 0 c-0.12 -0.36 -0.2 -0.58 -0.2 -1.72 l0 -2.2 c0 -1.3 -0.44 -1.78 -1.44 -1.78 l-0.76 0 l0 5.7 l-2.2 0 l0 -14 l3.32 0 c2.28 0 3.26 1.06 3.26 3.22 l0 1.1 c0 1.44 -0.46 2.36 -1.44 2.82 l0 0.04 c1.1 0.46 1.46 1.5 1.46 2.96 l0 2.16 c0 0.68 0.02 1.18 0.24 1.7 z M28.279999999999998 8 l-1.06 0 l0 4.3 l0.86 0 c0.82 0 1.32 -0.36 1.32 -1.48 l0 -1.38 c0 -1 -0.34 -1.44 -1.12 -1.44 z M37.94 6 l2.24 14 l-2.22 0 l-0.38 -2.54 l-2.7 0 l-0.38 2.54 l-2.02 0 l2.24 -14 l3.22 0 z M36.199999999999996 8.48 l-1.04 7.08 l2.12 0 l-1.04 -7.08 l-0.04 0 z"/></g>
			</g>
		</svg>
	